<svg width="242" height="374" viewBox="0 0 242 374" fill="none" xmlns="http://www.w3.org/2000/svg">
<path fill-rule="evenodd" clip-rule="evenodd" d="M242 0V7.12381V42.7429H234.882V7.12381L199.294 7.12381V0H234.882H242ZM0 374V366.876V331.257H7.11765L7.11764 366.876H42.7059V374H7.11764H0ZM234.882 374H242V331.257H234.882V366.876H199.294V374H234.882ZM1.41859e-05 0H7.11766V1.04719e-05L42.7059 1.51475e-05L42.7059 7.12382L7.11766 7.12382L7.11765 42.7429H6.71251e-06L1.41859e-05 0Z" fill="#F2F2F5"/>
<path d="M34.4879 265.846C34.0361 265.846 33.6062 265.801 33.2029 265.714C32.7972 265.626 32.4204 265.497 32.0678 265.322C31.7172 265.145 31.3888 264.928 31.0846 264.666L31.6468 263.918C32.037 264.267 32.4711 264.529 32.9427 264.704C33.4167 264.878 33.9324 264.966 34.4879 264.966C35.2926 264.966 35.9164 264.804 36.3571 264.482C36.7979 264.157 37.0184 263.702 37.0184 263.116V263.109C37.0184 262.746 36.9236 262.455 36.7318 262.238C36.5401 262.018 36.291 261.855 35.989 261.745C35.6849 261.635 35.2947 261.534 34.8165 261.443C34.8033 261.438 34.7899 261.436 34.7745 261.433C34.7591 261.431 34.7437 261.427 34.7259 261.422L34.5386 261.384C33.8795 261.257 33.3528 261.124 32.9561 260.988C32.5613 260.849 32.2242 260.614 31.9464 260.284C31.6687 259.955 31.5299 259.496 31.5299 258.909V258.903C31.5299 258.313 31.66 257.81 31.9201 257.39C32.1803 256.974 32.5613 256.654 33.0597 256.436C33.5601 256.217 34.1595 256.107 34.8627 256.107C35.1934 256.107 35.5217 256.145 35.8458 256.219C36.172 256.293 36.4916 256.405 36.8091 256.551C37.1241 256.696 37.4371 256.882 37.748 257.106L37.1991 257.848C36.7936 257.559 36.399 257.344 36.0112 257.2C35.6231 257.059 35.2396 256.987 34.8627 256.987C34.0955 256.987 33.5004 257.151 33.0795 257.48C32.6585 257.807 32.4468 258.269 32.4468 258.864V258.871C32.4468 259.23 32.5527 259.512 32.7621 259.72C32.9737 259.928 33.236 260.083 33.5466 260.184C33.8597 260.284 34.2874 260.388 34.8295 260.497C34.8473 260.502 34.8648 260.506 34.8847 260.511C34.9045 260.515 34.9244 260.52 34.9466 260.524C34.9707 260.529 34.9971 260.533 35.0191 260.54C35.0434 260.546 35.0677 260.553 35.0942 260.558C35.6849 260.679 36.1742 260.82 36.5666 260.977C36.9589 261.133 37.2852 261.38 37.5451 261.716C37.8054 262.049 37.9354 262.502 37.9354 263.071V263.084C37.9354 263.664 37.8009 264.162 37.5298 264.576C37.2566 264.99 36.8642 265.304 36.3505 265.521C35.8347 265.738 35.2153 265.846 34.4879 265.846ZM42.6568 265.846C41.9581 265.846 41.363 265.707 40.8692 265.432C40.3777 265.156 40.0008 264.757 39.7428 264.231C39.485 263.707 39.3548 263.073 39.3548 262.329V259.626C39.3548 258.882 39.485 258.246 39.7428 257.722C40.0008 257.198 40.3777 256.797 40.8692 256.522C41.363 256.246 41.9581 256.107 42.6568 256.107C43.3532 256.107 43.9485 256.246 44.4421 256.522C44.9337 256.797 45.3107 257.198 45.5685 257.722C45.8264 258.246 45.9566 258.882 45.9566 259.626V262.329C45.9566 263.073 45.8264 263.707 45.5685 264.231C45.3107 264.757 44.9337 265.156 44.4421 265.432C43.9485 265.707 43.3532 265.846 42.6568 265.846ZM42.6568 264.966C43.1549 264.966 43.5825 264.865 43.9374 264.661C44.2923 264.457 44.5633 264.162 44.7486 263.776C44.9337 263.389 45.0263 262.921 45.0263 262.374V259.579C45.0263 259.032 44.9337 258.564 44.7486 258.179C44.5633 257.792 44.2923 257.496 43.9374 257.292C43.5825 257.088 43.1549 256.987 42.6568 256.987C42.1564 256.987 41.7287 257.088 41.374 257.292C41.019 257.496 40.7478 257.792 40.5628 258.179C40.3777 258.564 40.285 259.032 40.285 259.579V262.374C40.285 262.921 40.3777 263.389 40.5628 263.776C40.7478 264.162 41.019 264.457 41.374 264.661C41.7287 264.865 42.1564 264.966 42.6568 264.966ZM47.9557 256.206H48.8859V265.747H47.9557V256.206ZM48.6148 264.867H53.9888V265.747H48.6148V264.867ZM58.4435 265.846C57.7075 265.846 57.0967 265.716 56.6097 265.459C56.1226 265.201 55.7588 264.813 55.5141 264.3C55.2717 263.788 55.1506 263.14 55.1506 262.361V256.206H56.0806V262.408C56.0806 263.243 56.2746 263.87 56.667 264.287C57.0594 264.706 57.6523 264.914 58.4435 264.914C59.2349 264.914 59.83 264.706 60.2246 264.287C60.6214 263.87 60.8198 263.243 60.8198 262.408V256.206H61.7497V262.361C61.7497 263.14 61.6286 263.788 61.3841 264.3C61.1415 264.813 60.7756 265.201 60.2842 265.459C59.7924 265.716 59.1798 265.846 58.4435 265.846ZM66.7602 265.846C66.1099 265.846 65.5391 265.7 65.0453 265.407C64.5515 265.113 64.1701 264.697 63.8992 264.159C63.628 263.622 63.4912 262.997 63.4912 262.289V259.671C63.4912 258.963 63.628 258.338 63.8992 257.801C64.1701 257.263 64.5515 256.846 65.0453 256.551C65.5391 256.255 66.1099 256.107 66.7602 256.107C67.2981 256.107 67.794 256.219 68.2458 256.443C68.6977 256.665 69.0745 256.981 69.3787 257.39C69.683 257.801 69.8879 258.273 69.996 258.811H69.0658C68.9622 258.452 68.7925 258.136 68.5588 257.861C68.3229 257.583 68.0496 257.37 67.7345 257.216C67.4213 257.064 67.0953 256.987 66.7602 256.987C66.295 256.987 65.885 257.099 65.5324 257.321C65.1797 257.545 64.9065 257.859 64.7125 258.264C64.5185 258.667 64.4215 259.138 64.4215 259.671V262.289C64.4215 262.822 64.5185 263.292 64.7125 263.696C64.9065 264.101 65.1797 264.415 65.5324 264.634C65.885 264.856 66.295 264.966 66.7602 264.966C67.0953 264.966 67.4213 264.894 67.7345 264.751C68.0496 264.605 68.3229 264.394 68.5588 264.119C68.7925 263.844 68.9622 263.519 69.0658 263.142H69.996C69.8879 263.68 69.6807 264.155 69.3744 264.563C69.0702 264.972 68.6911 265.288 68.239 265.512C67.7873 265.734 67.2937 265.846 66.7602 265.846ZM66.6962 268.516C66.2731 268.516 65.8962 268.478 65.5655 268.399L65.7595 267.73C66.0593 267.79 66.3635 267.821 66.6698 267.821C66.9145 267.821 67.1062 267.781 67.2407 267.703C67.3774 267.624 67.4435 267.512 67.4435 267.369C67.4435 267.214 67.3531 267.102 67.1723 267.031C66.9917 266.959 66.7249 266.921 66.3722 266.921L66.7735 266.352C67.254 266.352 67.6286 266.446 67.8931 266.634C68.1576 266.82 68.29 267.087 68.29 267.427C68.29 267.772 68.1511 268.041 67.8734 268.231C67.5957 268.422 67.2031 268.516 66.6962 268.516ZM67.0181 265.346V266.921H66.2686V265.346H67.0181ZM74.7175 265.846C74.0186 265.846 73.4236 265.707 72.9298 265.432C72.4383 265.156 72.0613 264.757 71.8035 264.231C71.5456 263.707 71.4154 263.073 71.4154 262.329V259.626C71.4154 258.882 71.5456 258.246 71.8035 257.722C72.0613 257.198 72.4383 256.797 72.9298 256.522C73.4236 256.246 74.0186 256.107 74.7175 256.107C75.4139 256.107 76.009 256.246 76.5029 256.522C76.9943 256.797 77.3712 257.198 77.6291 257.722C77.887 258.246 78.0171 258.882 78.0171 259.626V262.329C78.0171 263.073 77.887 263.707 77.6291 264.231C77.3712 264.757 76.9943 265.156 76.5029 265.432C76.009 265.707 75.4139 265.846 74.7175 265.846ZM74.7175 264.966C75.2155 264.966 75.6431 264.865 75.998 264.661C76.3529 264.457 76.6239 264.162 76.8092 263.776C76.9943 263.389 77.0869 262.921 77.0869 262.374V259.579C77.0869 259.032 76.9943 258.564 76.8092 258.179C76.6239 257.792 76.3529 257.496 75.998 257.292C75.6431 257.088 75.2155 256.987 74.7175 256.987C74.2171 256.987 73.7894 257.088 73.4346 257.292C73.0796 257.496 72.8085 257.792 72.6234 258.179C72.4383 258.564 72.3457 259.032 72.3457 259.579V262.374C72.3457 262.921 72.4383 263.389 72.6234 263.776C72.8085 264.162 73.0796 264.457 73.4346 264.661C73.7894 264.865 74.2171 264.966 74.7175 264.966ZM75.9054 255.525C75.7159 255.525 75.5417 255.494 75.3809 255.435C75.2222 255.377 75.0855 255.305 74.9687 255.225C74.8519 255.144 74.7086 255.034 74.5345 254.893L74.5168 254.875C74.4949 254.857 74.4749 254.839 74.4552 254.822C74.4352 254.804 74.4155 254.786 74.3933 254.77C74.239 254.642 74.0981 254.546 73.9702 254.481C73.8444 254.414 73.7079 254.383 73.5601 254.383C73.3442 254.383 73.1833 254.448 73.0751 254.58C72.9694 254.71 72.9143 254.907 72.9143 255.169V255.505H72.2178V255.144C72.2178 254.64 72.3279 254.264 72.5461 254.015C72.7667 253.764 73.095 253.641 73.5337 253.641C73.818 253.641 74.0605 253.697 74.2612 253.811C74.4616 253.926 74.6822 254.087 74.9224 254.297L74.9555 254.322C74.9774 254.34 74.9973 254.358 75.0171 254.376C75.037 254.394 75.0567 254.409 75.0789 254.427C75.22 254.542 75.3522 254.629 75.4758 254.689C75.5969 254.752 75.7292 254.781 75.8724 254.781C76.0883 254.781 76.2493 254.714 76.3574 254.575C76.4632 254.439 76.5182 254.228 76.5182 253.948V253.621H77.2148V253.975C77.2148 254.492 77.1068 254.878 76.8885 255.137C76.6725 255.395 76.3441 255.525 75.9054 255.525ZM80.0164 256.206H80.9466V265.747H80.0164V256.206ZM80.6555 264.867H86.0494V265.747H80.6555V264.867ZM80.6555 260.569H85.3373V261.449H80.6555V260.569ZM80.6555 256.206H86.0494V257.086H80.6555V256.206ZM90.7443 265.846C90.2924 265.846 89.8625 265.801 89.4593 265.714C89.0537 265.626 88.6768 265.497 88.3241 265.322C87.9735 265.145 87.6452 264.928 87.3409 264.666L87.9031 263.918C88.2933 264.267 88.7274 264.529 89.1991 264.704C89.673 264.878 90.1888 264.966 90.7443 264.966C91.5489 264.966 92.1727 264.804 92.6134 264.482C93.0543 264.157 93.2748 263.702 93.2748 263.116V263.109C93.2748 262.746 93.18 262.455 92.9882 262.238C92.7963 262.018 92.5473 261.855 92.2453 261.745C91.9412 261.635 91.551 261.534 91.0728 261.443C91.0595 261.438 91.0463 261.436 91.0309 261.433C91.0155 261.431 91 261.427 90.9823 261.422L90.7949 261.384C90.1358 261.257 89.6091 261.124 89.2124 260.988C88.8178 260.849 88.4805 260.614 88.2028 260.284C87.9251 259.955 87.7862 259.496 87.7862 258.909V258.903C87.7862 258.313 87.9163 257.81 88.1764 257.39C88.4366 256.974 88.8178 256.654 89.316 256.436C89.8163 256.217 90.4159 256.107 91.119 256.107C91.4498 256.107 91.7782 256.145 92.1021 256.219C92.4283 256.293 92.748 256.405 93.0654 256.551C93.3806 256.696 93.6934 256.882 94.0043 257.106L93.4554 257.848C93.05 257.559 92.6555 257.344 92.2675 257.2C91.8794 257.059 91.496 256.987 91.119 256.987C90.352 256.987 89.7569 257.151 89.3358 257.48C88.9148 257.807 88.7032 258.269 88.7032 258.864V258.871C88.7032 259.23 88.809 259.512 89.0184 259.72C89.2301 259.928 89.4925 260.083 89.8031 260.184C90.1161 260.284 90.5438 260.388 91.0859 260.497C91.1036 260.502 91.1211 260.506 91.141 260.511C91.1608 260.515 91.1807 260.52 91.2029 260.524C91.2271 260.529 91.2535 260.533 91.2754 260.54C91.2997 260.546 91.324 260.553 91.3505 260.558C91.9412 260.679 92.4307 260.82 92.8229 260.977C93.2152 261.133 93.5415 261.38 93.8015 261.716C94.0618 262.049 94.1918 262.502 94.1918 263.071V263.084C94.1918 263.664 94.0573 264.162 93.7862 264.576C93.5128 264.99 93.1205 265.304 92.6069 265.521C92.091 265.738 91.4717 265.846 90.7443 265.846ZM106.033 260.871V262.276C106.033 263.073 105.912 263.736 105.669 264.265C105.427 264.793 105.061 265.19 104.574 265.452C104.089 265.714 103.478 265.846 102.746 265.846C102.006 265.846 101.391 265.721 100.897 265.472C100.403 265.223 100.035 264.849 99.7884 264.352C99.5436 263.857 99.4201 263.234 99.4201 262.486V259.671C99.4201 258.876 99.5436 258.213 99.786 257.686C100.029 257.16 100.394 256.764 100.882 256.501C101.367 256.239 101.977 256.107 102.709 256.107C103.315 256.107 103.837 256.212 104.278 256.423C104.717 256.634 105.076 256.947 105.356 257.364C105.636 257.783 105.837 258.309 105.956 258.943H104.948C104.836 258.506 104.682 258.141 104.481 257.854C104.28 257.565 104.034 257.348 103.738 257.205C103.443 257.059 103.099 256.987 102.709 256.987C102.182 256.987 101.746 257.086 101.397 257.285C101.049 257.485 100.787 257.783 100.613 258.179C100.439 258.573 100.35 259.073 100.35 259.671V262.486C100.35 263.042 100.439 263.503 100.615 263.868C100.793 264.233 101.058 264.507 101.413 264.69C101.768 264.874 102.213 264.966 102.746 264.966C103.269 264.966 103.696 264.872 104.036 264.684C104.373 264.495 104.627 264.206 104.796 263.812C104.968 263.418 105.052 262.912 105.052 262.296V261.752H102.779V260.871H106.033ZM111.014 265.846C110.316 265.846 109.721 265.707 109.227 265.432C108.735 265.156 108.358 264.757 108.1 264.231C107.843 263.707 107.712 263.073 107.712 262.329V259.626C107.712 258.882 107.843 258.246 108.1 257.722C108.358 257.198 108.735 256.797 109.227 256.522C109.721 256.246 110.316 256.107 111.014 256.107C111.711 256.107 112.306 256.246 112.8 256.522C113.291 256.797 113.668 257.198 113.926 257.722C114.184 258.246 114.314 258.882 114.314 259.626V262.329C114.314 263.073 114.184 263.707 113.926 264.231C113.668 264.757 113.291 265.156 112.8 265.432C112.306 265.707 111.711 265.846 111.014 265.846ZM111.014 264.966C111.512 264.966 111.94 264.865 112.295 264.661C112.65 264.457 112.921 264.162 113.106 263.776C113.291 263.389 113.384 262.921 113.384 262.374V259.579C113.384 259.032 113.291 258.564 113.106 258.179C112.921 257.792 112.65 257.496 112.295 257.292C111.94 257.088 111.512 256.987 111.014 256.987C110.514 256.987 110.086 257.088 109.732 257.292C109.376 257.496 109.105 257.792 108.92 258.179C108.735 258.564 108.642 259.032 108.642 259.579V262.374C108.642 262.921 108.735 263.389 108.92 263.776C109.105 264.162 109.376 264.457 109.732 264.661C110.086 264.865 110.514 264.966 111.014 264.966ZM115.476 256.206H116.456L119.163 264.408L121.868 256.206H122.851L119.595 265.747H118.729L115.476 256.206ZM124.27 256.206H125.201V265.747H124.27V256.206ZM124.91 264.867H130.304V265.747H124.91V264.867ZM124.91 260.569H129.592V261.449H124.91V260.569ZM124.91 256.206H130.304V257.086H124.91V256.206ZM132.75 260.833H135.953C136.301 260.833 136.61 260.755 136.874 260.6C137.139 260.444 137.344 260.224 137.487 259.94C137.63 259.655 137.705 259.328 137.71 258.956C137.71 258.584 137.637 258.255 137.494 257.971C137.35 257.686 137.145 257.467 136.881 257.312C136.616 257.158 136.306 257.079 135.953 257.079H132.75V256.199H135.902C136.444 256.199 136.921 256.313 137.333 256.542C137.743 256.768 138.062 257.091 138.287 257.509C138.514 257.926 138.627 258.41 138.627 258.956C138.627 259.503 138.514 259.984 138.287 260.403C138.062 260.82 137.743 261.142 137.328 261.371C136.916 261.597 136.44 261.711 135.902 261.711H132.75V260.833ZM132.175 256.199H133.105V265.747H132.175V256.199ZM135.759 261.416L136.619 261.115L139.021 265.747H137.91L135.759 261.416ZM140.796 256.206H141.732L147.184 264.802L146.802 264.54V256.206H147.732V265.741H146.782L141.223 257.079L141.726 257.453V265.741H140.796V256.206ZM152.487 256.206H153.609L157.072 265.747H156.038L153.047 257.198L150.058 265.747H149.024L152.487 256.206ZM150.62 262.551H155.56V263.431H150.62V262.551ZM165.498 256.206H166.473V265.747H165.545V257.552L165.642 257.971L162.811 264.421H162.152L159.324 258.103L159.421 257.552V265.747H158.491V256.206H159.467L162.483 263.095L165.498 256.206ZM168.798 256.206H169.728V265.747H168.798V256.206ZM169.437 264.867H174.831V265.747H169.437V264.867ZM169.437 260.569H174.119V261.449H169.437V260.569ZM169.437 256.206H174.831V257.086H169.437V256.206ZM176.702 256.206H177.639L183.09 264.802L182.709 264.54V256.206H183.639V265.741H182.689L177.13 257.079L177.632 257.453V265.741H176.702V256.206ZM188.036 256.593H188.967V265.747H188.036V256.593ZM185.189 256.206H191.815V257.086H185.189V256.206ZM195.083 256.206H196.205L199.668 265.747H198.634L195.643 257.198L192.654 265.747H191.621L195.083 256.206ZM193.216 262.551H198.156V263.431H193.216V262.551ZM202.212 265.747H201.282V256.206H202.212V265.747ZM207.553 265.846C207.101 265.846 206.671 265.801 206.268 265.714C205.862 265.626 205.485 265.497 205.132 265.322C204.782 265.145 204.454 264.928 204.149 264.666L204.711 263.918C205.102 264.267 205.536 264.529 206.007 264.704C206.481 264.878 206.997 264.966 207.553 264.966C208.357 264.966 208.981 264.804 209.422 264.482C209.863 264.157 210.083 263.702 210.083 263.116V263.109C210.083 262.746 209.988 262.455 209.797 262.238C209.605 262.018 209.356 261.855 209.054 261.745C208.75 261.635 208.359 261.534 207.881 261.443C207.868 261.438 207.855 261.436 207.839 261.433C207.824 261.431 207.808 261.427 207.791 261.422L207.603 261.384C206.944 261.257 206.417 261.124 206.021 260.988C205.626 260.849 205.289 260.614 205.011 260.284C204.733 259.955 204.594 259.496 204.594 258.909V258.903C204.594 258.313 204.725 257.81 204.985 257.39C205.245 256.974 205.626 256.654 206.124 256.436C206.625 256.217 207.224 256.107 207.927 256.107C208.258 256.107 208.586 256.145 208.91 256.219C209.237 256.293 209.556 256.405 209.874 256.551C210.189 256.696 210.502 256.882 210.813 257.106L210.264 257.848C209.858 257.559 209.464 257.344 209.076 257.2C208.688 257.059 208.304 256.987 207.927 256.987C207.16 256.987 206.565 257.151 206.144 257.48C205.723 257.807 205.511 258.269 205.511 258.864V258.871C205.511 259.23 205.617 259.512 205.827 259.72C206.038 259.928 206.301 260.083 206.611 260.184C206.924 260.284 207.352 260.388 207.894 260.497C207.912 260.502 207.93 260.506 207.949 260.511C207.969 260.515 207.989 260.52 208.011 260.524C208.035 260.529 208.062 260.533 208.084 260.54C208.108 260.546 208.132 260.553 208.159 260.558C208.75 260.679 209.239 260.82 209.631 260.977C210.024 261.133 210.35 261.38 210.61 261.716C210.87 262.049 211 262.502 211 263.071V263.084C211 263.664 210.866 264.162 210.594 264.576C210.321 264.99 209.929 265.304 209.415 265.521C208.899 265.738 208.28 265.846 207.553 265.846Z" fill="#B1B0B8"/>
<path d="M69.2103 214.646C69.2103 225.778 69.2103 236.911 69.2103 248.043" stroke="#B1B0B8" stroke-width="2.00013" stroke-miterlimit="22.9256"/>
<path d="M69.4286 231.383C56.8343 231.37 44.24 231.358 31.6458 231.345" stroke="#B1B0B8" stroke-width="2.00013" stroke-miterlimit="22.9256"/>
<path d="M117.662 231.383C105.238 231.37 92.8147 231.358 80.3914 231.345" stroke="#B1B0B8" stroke-width="2.00013" stroke-miterlimit="22.9256"/>
<path d="M164.077 231.383C151.341 231.366 138.604 231.35 125.868 231.333" stroke="#B1B0B8" stroke-width="2.00013" stroke-miterlimit="22.9256"/>
<path d="M117.237 215.943C107.867 215.744 98.4977 215.546 92.769 216.123C87.0403 216.699 84.9523 218.05 83.4367 219.796C81.9211 221.542 80.978 223.682 80.4907 226.654C80.0033 229.627 79.9722 233.432 80.3029 236.154C80.6336 238.875 81.3261 240.514 82.0661 241.851C82.806 243.188 83.5936 244.222 84.8916 245.374C86.1897 246.527 87.9984 247.797 93.3838 248.323C98.7689 248.849 107.731 248.632 116.692 248.415" stroke="#B1B0B8" stroke-width="2.00013" stroke-miterlimit="22.9256"/>
<path d="M209.953 229.102C209.996 224.974 210.04 220.846 210.084 216.718C200.714 216.52 191.344 216.322 185.616 216.898C179.887 217.475 177.799 218.826 176.283 220.572C174.768 222.318 173.825 224.458 173.337 227.43C172.85 230.403 172.819 234.207 173.149 236.929C173.48 239.651 174.173 241.29 174.913 242.627C175.653 243.963 176.44 244.998 177.738 246.15C179.036 247.303 180.845 248.572 186.23 249.099C191.615 249.625 200.577 249.408 209.539 249.191" stroke="#B1B0B8" stroke-width="2.00013" stroke-miterlimit="22.9256"/>
<path d="M125.504 248.754C125.504 241.857 125.504 234.961 125.587 230.888C125.671 226.814 125.837 225.563 126.602 224.092C127.367 222.622 128.731 220.932 130.145 219.613C131.559 218.295 133.023 217.348 134.653 216.791C136.283 216.233 138.08 216.064 142.92 216.047C147.761 216.03 155.645 216.165 163.53 216.3C163.563 227.355 163.597 238.409 163.63 249.464" stroke="#B1B0B8" stroke-width="2.00013" stroke-miterlimit="22.9256"/>
<path d="M31 214.649C31 225.866 31 237.083 31 248.301" stroke="#B1B0B8" stroke-width="2.00013" stroke-miterlimit="22.9256"/>
<path fill-rule="evenodd" clip-rule="evenodd" d="M115.989 172.482C117.055 172.482 120.166 175.037 124.939 173.391C126.474 172.871 126.559 172.005 129.031 172.828C130.523 173.348 131.673 174.387 132.782 175.47C134.231 176.942 134.785 178.978 134.785 181.923V194.829C134.785 196.388 134.444 197.384 132.867 197.384C128.52 197.384 124.13 197.384 119.74 197.384C118.078 197.384 116.756 197.297 115.137 197.297C113.56 197.297 111.94 197.254 110.406 197.297C109.852 197.297 107.806 197.861 107.806 195.392C107.806 190.281 107.678 184.825 107.891 179.714C107.891 179.238 108.147 178.501 108.275 178.025C108.616 176.899 109.681 175.6 109.681 175.253C109.681 174.474 108.573 173.564 107.337 175.99C105.675 179.238 106.101 180.927 106.101 184.521C106.101 184.781 106.229 189.069 106.016 189.285H95.4034C94.7641 189.285 94.4658 189.329 93.9969 188.895C93.6986 188.592 93.528 188.073 93.528 187.466V172.655C93.528 170.533 94.3379 168.41 95.7869 166.981C96.2984 166.418 97.4066 165.725 98.1311 165.336C99.2393 164.729 100.56 164.556 101.967 164.556C102.436 164.556 105.121 166.462 108.701 165.855C109.085 165.812 109.511 165.682 109.852 165.595C111.173 165.249 111.343 164.903 111.812 166.505C112.835 170.1 115.009 170.533 112.963 171.312C112.537 171.485 112.196 171.572 111.812 171.789C111.429 171.962 111.045 172.135 110.832 172.395C110.534 172.785 110.619 173.304 110.917 173.607C111.301 173.911 111.684 173.781 112.068 173.564C113.219 172.915 114.497 172.482 115.989 172.482ZM113.048 163.3C113.048 161.048 114.156 158.796 115.648 157.28C119.612 153.209 126.389 154.465 129.031 158.969L129.201 159.229C129.329 159.532 129.415 159.705 129.585 160.009C129.798 160.528 129.969 161.048 130.054 161.698C130.139 162.261 130.267 163.127 130.267 163.69C130.267 164.946 130.011 166.115 129.457 167.198C129.201 167.718 128.988 168.151 128.69 168.584C128.52 168.8 128.392 168.973 128.221 169.147C128.008 169.407 127.923 169.58 127.71 169.796C125.834 171.355 124.3 172.222 121.53 172.178C121.018 172.178 120.081 172.092 119.654 172.005C119.015 171.875 118.504 171.702 118.035 171.442C117.779 171.312 117.609 171.225 117.353 171.096L117.012 170.879C116.884 170.792 116.799 170.749 116.671 170.619C116.16 170.229 115.947 170.013 115.52 169.58C114.156 168.237 113.048 166.115 113.048 163.3ZM147.827 191.018C149.361 190.065 149.02 190.801 149.787 189.545C150 189.199 150.043 189.372 150.128 188.982C150.171 188.766 150.171 188.895 150.171 188.592C149.233 188.592 149.574 188.679 149.148 188.809C148.977 189.502 149.233 188.895 148.935 189.588C148.935 188.636 148.977 189.155 148.679 188.939C148.466 189.155 148.296 189.112 148.21 189.459C147.273 189.502 146.378 189.545 145.397 189.545C143.948 189.545 136.745 189.762 136.404 189.415C136.191 189.199 136.319 184.781 136.319 184.132C136.319 183.222 136.276 182.269 136.276 181.36C136.319 180.32 136.063 179.498 136.063 178.675V177.938C135.509 176.293 134.827 175.167 133.549 173.867C133.25 173.607 132.995 173.261 132.654 173.001C131.29 171.789 130.011 171.615 128.946 171.052C129.074 170.619 129.372 170.446 129.628 170.1C130.736 168.67 131.332 167.414 131.759 165.595C131.887 164.903 132.142 165.162 132.739 165.379C133.549 165.639 134.572 165.899 135.595 165.899C141.306 165.855 139.814 163.517 143.778 165.076C144.161 165.206 144.588 165.422 144.928 165.595L145.653 166.115C145.823 166.202 145.823 166.202 145.951 166.158C146.292 166.332 146.378 166.332 146.633 166.548L147.059 167.155L147.145 167.241L147.997 168.367L148.338 167.891L148.381 167.848L148.594 167.804C148.551 167.804 148.509 167.371 148.466 168.151C148.381 169.58 148.636 169.58 149.063 170.619L149.105 170.662L149.148 170.792C149.361 171.225 149.233 171.182 149.19 171.615L149.233 186.514C149.233 187.38 149.105 187.51 149.531 187.856C149.702 187.163 149.233 171.615 149.702 171.615V188.419C150.938 188.419 150.171 188.203 150.725 187.856C150.725 186.167 150.853 173.045 150.682 171.789C150.469 170.229 150.213 169.32 149.531 167.977C149.148 167.328 148.679 166.765 148.21 166.158C147.912 165.769 147.614 165.465 147.23 165.162C145.994 164.253 144.801 163.517 143.224 163.127C143.266 162.65 145.014 161.091 145.866 158.536C146.505 156.674 146.335 154.075 145.738 152.256C145.312 150.87 144.076 148.575 142.883 147.839C142.414 147.536 141.817 147.622 141.604 148.055C141.263 148.748 142.414 149.744 142.84 150.264C144.289 152.083 144.971 154.898 144.289 157.54C144.076 158.449 143.735 159.316 143.266 160.138C142.329 161.957 140.027 163.517 138.067 163.993C136.575 164.339 134.742 164.253 133.336 163.82C131.247 163.17 132.568 162.824 130.906 158.969C130.736 158.623 130.48 158.146 130.267 157.757C130.139 157.583 130.054 157.453 129.926 157.28C128.477 155.115 127.113 155.548 127.624 153.599C128.221 151.477 129.415 149.181 131.332 148.099C132.782 147.276 134.913 146.453 137.214 146.886L138.663 147.233C140.24 147.796 140.581 146.54 139.942 145.933C139.132 145.154 136.49 145.067 135.339 145.067C134.316 145.11 133.08 145.457 132.313 145.717C130.565 146.366 128.988 147.709 127.88 149.138L127.326 149.874C127.07 150.264 126.9 150.524 126.687 151L126.133 152.43C126.133 152.473 126.133 152.473 126.133 152.516C126.133 152.559 126.09 152.559 126.09 152.603L125.749 153.772C125.323 153.772 125.153 153.685 124.812 153.556C122.894 152.863 120.507 152.819 118.546 153.556C118.12 153.685 118.163 153.772 117.566 153.772C117.268 153.079 117.055 151.867 116.671 151.044C113.815 145.067 106.229 143.118 100.987 147.319C99.5802 148.445 98.5999 149.788 97.8327 151.477C97.1508 152.993 98.259 153.729 98.9835 152.949C99.1966 152.733 99.495 152.04 99.6654 151.693C100.816 149.311 103.16 147.189 105.931 146.929C109.681 146.54 112.494 147.666 114.583 150.827C114.796 151.174 115.051 151.607 115.222 152.04C115.52 152.689 116.117 154.335 115.691 154.942C115.648 154.985 115.605 155.071 115.52 155.158L115.435 155.245C115.265 155.418 115.435 155.245 115.307 155.375C115.094 155.548 115.009 155.591 114.753 155.808C114.156 156.414 113.517 157.064 113.048 157.757C111.557 160.052 111.429 162.997 111.173 163.3C110.96 163.473 110.108 163.776 109.852 163.863C107.849 164.383 105.59 164.296 103.629 163.43C101.37 162.391 99.2818 159.792 98.8982 157.107C98.813 156.544 98.7705 155.981 98.5999 155.548C98.2163 154.595 96.3836 154.595 97.3639 158.06C97.6196 158.969 97.9606 160.009 98.4295 160.701C98.7278 161.264 99.7933 162.521 99.9212 162.954C99.4097 163.17 98.3442 163.387 97.5771 163.733C97.1935 163.906 96.9377 164.08 96.5541 164.296C96.4263 164.383 96.4263 164.383 96.3411 164.469L95.6165 164.946C95.2329 165.249 95.105 165.336 94.8066 165.682L94.0395 166.505C92.2921 168.714 91.738 170.619 91.738 173.824V186.6C91.6953 191.927 95.5313 191.104 99.9212 191.104C101.37 191.104 104.993 190.931 106.101 191.191C106.101 192.057 105.973 195.392 106.144 196.215C106.186 196.258 106.229 196.431 106.229 196.518L106.314 196.821C106.698 198.25 108.317 199.03 109.766 199.116C111.599 199.203 113.645 199.116 115.52 199.116C119.356 199.116 123.192 199.116 127.07 199.116C128.988 199.116 133.421 199.549 134.955 198.467C135.509 198.034 136.021 197.471 136.276 196.821C136.745 195.565 136.149 192.057 136.532 191.191C137.044 190.671 146.42 191.494 147.827 191.018Z" fill="#585666"/>
<path fill-rule="evenodd" clip-rule="evenodd" d="M126.388 140.779H117.396C117.396 140.173 117.182 139.22 117.097 138.701C116.5 134.76 114.412 134.456 113.134 131.988C111.94 129.649 111.642 127.224 112.153 124.625C112.494 123.023 113.261 121.68 114.242 120.511C115.051 119.558 114.668 120.078 115.435 119.342C115.648 119.125 115.861 118.995 116.117 118.779C116.543 118.475 117.14 118.086 117.651 117.826C120.123 116.743 123.405 116.483 125.92 117.783C127.497 118.562 128.903 119.602 129.926 121.074C130.139 121.334 130.267 121.55 130.437 121.81C130.523 121.94 130.565 122.027 130.65 122.157C131.332 123.456 131.716 124.928 131.759 126.661C131.759 127.224 131.844 127.224 131.801 127.657C131.759 128.09 131.716 128.436 131.673 128.783C131.418 130.775 130.565 132.334 129.372 133.893C128.733 134.716 128.349 134.716 127.667 135.842C126.857 137.228 126.431 139.177 126.388 140.779ZM110.619 126.358C110.619 128.566 110.661 129.952 111.684 131.988C112.238 133.07 112.238 133.287 113.091 134.283C115.265 136.838 115.605 136.579 115.989 140.303C116.074 141.039 115.904 142.209 116.628 142.209H127.241C127.965 142.209 127.795 140.736 127.838 140.346C128.008 138.874 128.093 137.488 128.903 136.275C129.329 135.669 129.713 135.453 130.139 134.933C130.906 133.98 131.673 133.07 132.227 131.901C133.336 129.606 133.549 126.791 132.952 124.279C132.611 122.806 131.503 120.727 130.523 119.602C129.585 118.605 128.647 117.826 127.454 117.09C127.284 116.96 127.241 116.916 127.028 116.83C126.218 116.397 125.323 116.093 124.385 115.877C121.871 115.357 119.74 115.574 117.396 116.57L115.648 117.566C115.563 117.609 115.52 117.653 115.478 117.696L115.265 117.826C115.094 117.956 115.051 117.999 114.881 118.129C113.688 119.082 112.409 120.511 111.812 121.983C111.684 122.287 111.557 122.503 111.429 122.893C111.045 123.889 110.619 125.232 110.619 126.358Z" fill="#585666"/>
<path fill-rule="evenodd" clip-rule="evenodd" d="M121.231 119.298C121.231 120.598 124.641 119.082 127.497 122.503C130.139 125.665 128.605 128.393 130.139 128.133C131.546 127.96 130.31 123.413 128.264 121.334C127.582 120.641 126.729 119.948 125.792 119.472C125.28 119.212 121.231 117.566 121.231 119.298Z" fill="#585666"/>
<path fill-rule="evenodd" clip-rule="evenodd" d="M136.063 178.675C136.063 179.498 136.319 180.32 136.277 181.36C136.277 182.269 136.319 183.222 136.319 184.132C136.319 184.781 136.191 189.199 136.404 189.415C136.745 189.762 143.948 189.545 145.397 189.545C146.378 189.545 147.273 189.502 148.21 189.459C148.296 189.112 148.466 189.155 148.679 188.939C148.978 189.155 148.935 188.636 148.935 189.588C149.233 188.895 148.978 189.502 149.148 188.809C149.574 188.679 149.233 188.592 150.171 188.592C150.171 188.895 150.171 188.766 150.128 188.982C150.043 189.372 150 189.199 149.787 189.545C149.02 190.801 149.361 190.065 147.827 191.018C148.722 190.931 149.276 190.411 149.787 189.935C150.299 189.415 150.682 188.809 150.725 187.856C150.171 188.203 150.938 188.419 149.702 188.419V171.615C149.233 171.615 149.702 187.163 149.532 187.856C149.105 187.51 149.233 187.38 149.233 186.514L149.191 171.615C149.233 171.182 149.361 171.225 149.148 170.792L149.105 170.663L149.063 170.619C148.637 169.58 148.381 169.58 148.466 168.151C148.509 167.371 148.551 167.804 148.594 167.804L148.381 167.848L148.338 167.891L147.997 168.367L147.145 167.241L147.059 167.155L146.633 166.548C146.378 166.332 146.292 166.332 145.951 166.158C145.951 166.202 145.994 166.202 145.994 166.245L146.079 166.418C146.122 166.418 146.122 166.462 146.122 166.462C146.463 166.808 147.017 167.198 147.486 167.891C148.04 168.757 148.679 170.013 148.85 171.139C149.191 173.088 149.063 179.931 149.063 182.009C149.063 183.006 149.063 187.553 148.935 188.203C148.594 189.848 146.079 189.285 145.61 189.285C145.227 189.329 144.63 189.415 144.076 189.372C142.243 189.155 139.942 189.285 137.981 189.285C136.106 189.285 136.447 189.588 136.447 187.64C136.447 186.947 136.575 186.947 136.49 186.297C136.319 185.041 136.618 181.403 136.362 179.368C136.319 178.935 136.362 178.891 136.063 178.675Z" fill="#585666"/>
<path fill-rule="evenodd" clip-rule="evenodd" d="M121.146 107.258V110.896C121.146 112.759 122.553 112.109 122.553 111.589V106.695C122.553 105.829 121.146 105.526 121.146 107.258Z" fill="#0773B6"/>
<path fill-rule="evenodd" clip-rule="evenodd" d="M132.172 110.026L130.051 112.957C128.964 114.456 130.476 114.78 130.779 114.362L133.634 110.42C134.139 109.722 133.183 108.631 132.172 110.026Z" fill="#0773B6"/>
<path fill-rule="evenodd" clip-rule="evenodd" d="M138.788 116.563L135.674 118.359C134.08 119.279 135.331 120.201 135.776 119.944L139.964 117.528C140.705 117.1 140.27 115.708 138.788 116.563Z" fill="#0773B6"/>
<path fill-rule="evenodd" clip-rule="evenodd" d="M107.627 118.908L104.4 117.332C102.748 116.526 102.716 118.095 103.177 118.32L107.518 120.44C108.286 120.815 109.164 119.658 107.627 118.908Z" fill="#0773B6"/>
<path fill-rule="evenodd" clip-rule="evenodd" d="M110.732 110.876L112.632 113.96C113.604 115.538 114.457 114.229 114.186 113.788L111.63 109.64C111.178 108.906 109.827 109.408 110.732 110.876Z" fill="#0773B6"/>
<path fill-rule="evenodd" clip-rule="evenodd" d="M130.139 114.534L129.969 114.145L130.395 113.278C130.48 113.062 130.48 113.148 130.523 113.018C130.565 112.975 130.608 112.932 130.608 112.889L130.864 112.542C130.864 112.456 130.906 112.456 130.906 112.456C131.077 112.542 131.034 112.412 131.205 112.629C131.247 111.979 131.077 112.152 131.546 111.633C131.972 111.113 131.716 111.2 132.014 110.723L132.142 110.55C132.27 110.42 132.185 110.507 132.27 110.42C132.611 109.944 132.568 109.727 133.421 109.684C133.463 110.29 133.506 110.16 133.25 110.723C133.634 110.55 133.421 110.766 133.634 110.42C134.018 109.684 133.08 108.731 132.313 109.944C131.844 110.637 129.713 113.668 129.798 114.145C129.841 114.491 129.926 114.448 130.139 114.534Z" fill="#0773B6"/>
<path fill-rule="evenodd" clip-rule="evenodd" d="M117.568 143.318H126.545C127.463 143.318 128.214 144.081 128.214 145.013C128.214 145.946 127.463 146.709 126.545 146.709H117.568C116.651 146.709 115.9 145.946 115.9 145.014C115.9 144.081 116.651 143.318 117.568 143.318ZM118.421 147.246H125.534C126.315 147.246 126.954 147.895 126.954 148.689C126.954 149.483 126.315 150.133 125.534 150.133H118.421C117.64 150.133 117.001 149.484 117.001 148.69C117.001 147.896 117.64 147.246 118.421 147.246ZM118.867 148.169H125.088C125.37 148.169 125.6 148.403 125.6 148.689C125.6 148.976 125.37 149.211 125.088 149.211H118.867C118.585 149.211 118.355 148.976 118.355 148.69C118.355 148.403 118.585 148.169 118.867 148.169ZM117.616 144.421H126.498C126.818 144.421 127.081 144.688 127.081 145.013C127.081 145.339 126.818 145.606 126.498 145.606H117.616C117.295 145.606 117.033 145.339 117.033 145.014C117.033 144.688 117.295 144.421 117.616 144.421Z" fill="#585666"/>
</svg>
